Coordinates
version=1
nRows=11
nColumns=46
inDegrees=yes

Units are S.I. units (second, meters, Newtons, ...)
Angles are in degrees.

endheader
time	pelvis_tilt	pelvis_list	pelvis_rotation	pelvis_tx	pelvis_ty	pelvis_tz	bb_angle	bb_tx	bb_ty	bb_tz	hip_flexion_r	hip_adduction_r	hip_rotation_r	knee_angle_r	knee_angle_r_beta	ankle_angle_r	subtalar_angle_r	mtp_angle_r	crank_angle_r	hip_flexion_l	hip_adduction_l	hip_rotation_l	knee_angle_l	knee_angle_l_beta	ankle_angle_l	subtalar_angle_l	mtp_angle_l	crank_angle_l	lumbar_extension	lumbar_bending	lumbar_rotation	arm_flex_r	arm_add_r	arm_rot_r	elbow_flex_r	pro_sup_r	wrist_flex_r	wrist_dev_r	arm_flex_l	arm_add_l	arm_rot_l	elbow_flex_l	pro_sup_l	wrist_flex_l	wrist_dev_l
      5.00000000	    -31.90946479	     -6.31767192	     -3.64483165	      0.31375742	      1.02400419	     -0.22190426	      0.00000000	      0.50000000	      0.00000000	      0.25000000	     76.17024608	      2.47625559	      3.07999698	    109.18432580	      1.90562598	     -5.84042212	     -4.60928225	      0.00000000	      0.00000000	     39.05780775	    -12.23632936	     -6.16147797	     22.41120125	      0.39114925	    -11.60399933	     -2.44050818	      0.00000000	      0.00000000	    -39.21960764	      6.89999176	     -4.05065483	     73.25208095	     -9.68974347	     79.40567664	     48.03572431	     56.14348955	      0.00000000	      0.00000000	     31.68009241	    -30.09805360	     16.22343309	     84.97251548	     50.90332693	      0.00000000	      0.00000000
      5.00500000	    -32.12532457	     -6.45885333	     -4.16636014	      0.31338973	      1.02215729	     -0.22211688	      0.00000000	      0.50000000	      0.00000000	      0.25000000	     78.01647105	      2.65000314	      2.99974480	    110.72579787	      1.93252974	     -4.31974882	     -4.50177880	      0.00000000	      0.00000000	     38.03742268	    -12.67757783	     -6.92663036	     21.31979924	      0.37210069	    -12.62187948	     -1.59195963	      0.00000000	      0.00000000	    -38.92352915	      7.16158301	     -3.61787668	     73.50738477	     -9.54918967	     79.47511620	     48.09418456	     56.18525900	      0.00000000	      0.00000000	     31.30174543	    -30.07980754	     16.08747221	     84.86983760	     50.87779158	      0.00000000	      0.00000000
      5.01000000	    -32.02757156	     -6.20530780	     -4.82625512	      0.31355262	      1.02082671	     -0.22215228	      0.00000000	      0.50000000	      0.00000000	      0.25000000	     79.54054875	      2.85040938	      3.55286736	    112.19044597	      1.95809267	     -2.42535243	     -2.74738796	      0.00000000	      0.00000000	     36.57215505	    -12.91177012	     -8.48527481	     20.27497669	      0.35386510	    -13.42358871	     -0.31024623	      0.00000000	      0.00000000	    -38.90045147	      7.00896565	     -3.57767223	     73.77638677	     -9.26953149	     80.31616142	     48.07094214	     56.54676219	      0.00000000	      0.00000000	     30.36815899	    -29.77038427	     14.76710869	     84.99359147	     50.79279906	      0.00000000	      0.00000000
      5.01500000	    -31.97931152	     -5.96807018	     -5.44918021	      0.31365101	      1.01971419	     -0.22217752	      0.00000000	      0.50000000	      0.00000000	      0.25000000	     81.14476906	      2.91892867	      3.80168775	    113.41768658	      1.97951206	     -1.32512453	     -2.26821176	      0.00000000	      0.00000000	     35.24515303	    -13.09966470	     -9.77238245	     19.37896172	      0.33822669	    -14.30585390	      0.79904156	      0.00000000	      0.00000000	    -38.88232620	      6.80794992	     -3.35515948	     73.86481313	     -9.13642741	     80.47965788	     48.14309642	     56.66555987	      0.00000000	      0.00000000	     29.97786041	    -29.76727678	     14.55788033	     84.97847943	     50.77874296	      0.00000000	      0.00000000
      5.02000000	    -32.17788967	     -5.81527130	     -5.90283700	      0.31340850	      1.01845620	     -0.22245068	      0.00000000	      0.50000000	      0.00000000	      0.25000000	     82.97896372	      2.87611415	      3.91097531	    114.40386662	      1.99672415	     -0.67712998	     -1.96349296	      0.00000000	      0.00000000	     34.33097675	    -13.23021559	    -10.56454560	     18.63823119	      0.32529850	    -15.20972148	      1.77675443	      0.00000000	      0.00000000	    -38.65986886	      6.81382885	     -3.13569569	     74.05785018	     -9.08033131	     80.48135949	     48.24088610	     56.71176314	      0.00000000	      0.00000000	     29.76330336	    -29.73193938	     14.49650968	     84.96350122	     50.77451949	      0.00000000	      0.00000000
      5.02500000	    -32.25306222	     -5.31502881	     -6.48701049	      0.31367731	      1.01758972	     -0.22252578	      0.00000000	      0.50000000	      0.00000000	      0.25000000	     84.66935359	      2.83174566	      4.36448853	    115.21690293	      2.01091431	     -0.07723179	     -1.29946875	      0.00000000	      0.00000000	     33.15929019	    -13.11304357	    -11.82508460	     17.85634237	      0.31165197	    -15.98077985	      3.11152877	      0.00000000	      0.00000000	    -38.50577713	      6.38296908	     -3.00353584	     73.94524829	     -9.14242057	     80.56712048	     48.36149141	     56.79048800	      0.00000000	      0.00000000	     29.46203197	    -29.63810795	     14.45981398	     84.90955010	     50.76748505	      0.00000000	      0.00000000
      5.03000000	    -32.13482077	     -4.86749053	     -7.10596406	      0.31402658	      1.01711768	     -0.22230418	      0.00000000	      0.50000000	      0.00000000	      0.25000000	     86.11675719	      2.89696409	      4.72394801	    115.84592832	      2.02189287	      0.42596045	     -0.53519195	      0.00000000	      0.00000000	     31.90400867	    -13.13533935	    -13.27028308	     17.39472580	      0.30359524	    -16.28700987	      4.80853387	      0.00000000	      0.00000000	    -38.62130379	      5.86193243	     -2.75438661	     73.94095910	     -9.36868781	     80.48438624	     48.84221051	     56.97050986	      0.00000000	      0.00000000	     29.37530801	    -29.54514433	     14.30066663	     84.90015744	     50.75867254	      0.00000000	      0.00000000
      5.03500000	    -32.14322734	     -4.41682367	     -7.53909764	      0.31430472	      1.01670714	     -0.22223860	      0.00000000	      0.50000000	      0.00000000	      0.25000000	     87.62659630	      2.84871948	      4.99148768	    116.25354419	      2.02900711	      0.52031153	     -0.29241667	      0.00000000	      0.00000000	     30.88445160	    -12.99541978	    -14.20154765	     17.00844923	      0.29685344	    -16.73261955	      6.04470703	      0.00000000	      0.00000000	    -38.59404137	      5.43070058	     -2.54134674	     73.84546779	     -9.70488882	     80.36075540	     49.37393264	     57.12202334	      0.00000000	      0.00000000	     29.31943663	    -29.51628818	     14.25535876	     84.78463350	     50.74290323	      0.00000000	      0.00000000
      5.04000000	    -32.21400391	     -3.99584644	     -7.84434584	      0.31441442	      1.01642649	     -0.22225263	      0.00000000	      0.50000000	      0.00000000	      0.25000000	     89.12047829	      2.72532394	      5.16889631	    116.44107117	      2.03228008	      0.49190606	     -0.20437842	      0.00000000	      0.00000000	     30.06240847	    -12.79373363	    -14.68898519	     16.77873856	      0.29284423	    -17.18135506	      6.95578106	      0.00000000	      0.00000000	    -38.54098791	      5.12667029	     -2.48652682	     73.89017463	     -9.84235045	     80.27351097	     49.66031526	     57.18649631	      0.00000000	      0.00000000	     29.39305373	    -29.39360131	     14.44857567	     84.77799376	     50.76233410	      0.00000000	      0.00000000
      5.04500000	    -32.09170340	     -3.41875179	     -8.32578185	      0.31490215	      1.01652885	     -0.22190573	      0.00000000	      0.50000000	      0.00000000	      0.25000000	     90.33269952	      2.79621960	      5.50541089	    116.47335291	      2.03284350	      0.42960205	      0.02851036	      0.00000000	      0.00000000	     29.05234964	    -12.56436366	    -15.71261663	     16.82576470	      0.29366499	    -17.17861017	      8.10000877	      0.00000000	      0.00000000	    -38.67733647	      4.27406167	     -1.11359443	     73.20599396	    -12.78568693	     78.82457543	     53.46841908	     57.96076843	      0.00000000	      0.00000000	     31.32184757	    -28.69440230	     16.67810405	     83.23291973	     50.75133112	      0.00000000	      0.00000000
      5.05000000	    -32.16086202	     -2.86022337	     -8.66939833	      0.31503651	      1.01661098	     -0.22149063	      0.00000000	      0.50000000	      0.00000000	      0.25000000	     91.66791528	      2.82841073	      5.72950167	    116.32348711	      2.03022785	      0.51608255	      0.07968143	      0.00000000	      0.00000000	     28.39062681	    -12.24825877	    -16.18589970	     17.02633143	      0.29716554	    -17.09560962	      8.57380936	      0.00000000	      0.00000000	    -38.61805086	      3.69551733	     -0.99453053	     73.03420318	    -12.98253613	     78.82143008	     53.62608716	     58.00340486	      0.00000000	      0.00000000	     31.36154532	    -28.84354107	     16.72827713	     82.93774791	     50.71364357	      0.00000000	      0.00000000
